<svg width="1200" height="760" viewBox="0 0 1200 760" fill="none" xmlns="http://www.w3.org/2000/svg">
  <rect width="1200" height="760" fill="#f8fafc"/>
  <rect width="256" height="760" fill="#020617"/>
  <rect x="24" y="28" width="42" height="42" rx="7" fill="#10b981"/>
  <text x="40" y="56" font-family="Arial, sans-serif" font-size="22" font-weight="900" fill="#020617">I</text>
  <text x="80" y="54" font-family="Arial, sans-serif" font-size="20" font-weight="800" fill="#ffffff">InternTrack</text>
  <text x="80" y="76" font-family="Arial, sans-serif" font-size="12" fill="#94a3b8">Application manager</text>
  <rect x="24" y="124" width="208" height="42" rx="7" fill="#ffffff"/>
  <text x="62" y="151" font-family="Arial, sans-serif" font-size="15" font-weight="700" fill="#020617">Dashboard</text>
  <text x="62" y="205" font-family="Arial, sans-serif" font-size="15" font-weight="700" fill="#cbd5e1">Applications</text>
  <text x="62" y="253" font-family="Arial, sans-serif" font-size="15" font-weight="700" fill="#cbd5e1">Companies</text>
  <text x="62" y="301" font-family="Arial, sans-serif" font-size="15" font-weight="700" fill="#cbd5e1">Interviews</text>
  <text x="62" y="349" font-family="Arial, sans-serif" font-size="15" font-weight="700" fill="#cbd5e1">Documents</text>
  <text x="62" y="397" font-family="Arial, sans-serif" font-size="15" font-weight="700" fill="#cbd5e1">Analytics</text>
  <rect x="256" y="0" width="944" height="72" fill="#ffffff" stroke="#e2e8f0"/>
  <text x="296" y="30" font-family="Arial, sans-serif" font-size="14" fill="#64748b">Welcome back</text>
  <text x="296" y="54" font-family="Arial, sans-serif" font-size="20" font-weight="800" fill="#0f172a">Track your internship journey</text>
  <text x="296" y="126" font-family="Arial, sans-serif" font-size="28" font-weight="900" fill="#0f172a">Dashboard</text>
  <text x="296" y="154" font-family="Arial, sans-serif" font-size="15" fill="#64748b">A quick view of your internship search activity.</text>
  <g>
    <rect x="296" y="190" width="132" height="110" rx="10" fill="#ffffff" stroke="#e2e8f0"/>
    <text x="314" y="226" font-family="Arial" font-size="14" fill="#64748b">Total applications</text>
    <text x="314" y="272" font-family="Arial" font-size="38" font-weight="900" fill="#0f172a">12</text>
    <rect x="444" y="190" width="132" height="110" rx="10" fill="#ffffff" stroke="#e2e8f0"/>
    <text x="462" y="226" font-family="Arial" font-size="14" fill="#64748b">Pending</text>
    <text x="462" y="272" font-family="Arial" font-size="38" font-weight="900" fill="#0f172a">3</text>
    <rect x="592" y="190" width="132" height="110" rx="10" fill="#ffffff" stroke="#e2e8f0"/>
    <text x="610" y="226" font-family="Arial" font-size="14" fill="#64748b">Interviews</text>
    <text x="610" y="272" font-family="Arial" font-size="38" font-weight="900" fill="#0f172a">4</text>
    <rect x="740" y="190" width="132" height="110" rx="10" fill="#ffffff" stroke="#e2e8f0"/>
    <text x="758" y="226" font-family="Arial" font-size="14" fill="#64748b">Offers</text>
    <text x="758" y="272" font-family="Arial" font-size="38" font-weight="900" fill="#0f172a">1</text>
    <rect x="888" y="190" width="132" height="110" rx="10" fill="#ffffff" stroke="#e2e8f0"/>
    <text x="906" y="226" font-family="Arial" font-size="14" fill="#64748b">Rejected</text>
    <text x="906" y="272" font-family="Arial" font-size="38" font-weight="900" fill="#0f172a">2</text>
    <rect x="1036" y="190" width="132" height="110" rx="10" fill="#ffffff" stroke="#e2e8f0"/>
    <text x="1054" y="226" font-family="Arial" font-size="14" fill="#64748b">Follow-ups</text>
    <text x="1054" y="272" font-family="Arial" font-size="38" font-weight="900" fill="#0f172a">2</text>
  </g>
  <rect x="296" y="330" width="420" height="190" rx="10" fill="#ffffff" stroke="#e2e8f0"/>
  <text x="320" y="370" font-family="Arial" font-size="20" font-weight="800" fill="#0f172a">Follow-up reminders</text>
  <rect x="320" y="396" width="356" height="54" rx="8" fill="#fffbeb" stroke="#fde68a"/>
  <text x="338" y="428" font-family="Arial" font-size="15" font-weight="700" fill="#0f172a">BrightStack - Frontend Intern</text>
  <rect x="740" y="330" width="420" height="190" rx="10" fill="#ffffff" stroke="#e2e8f0"/>
  <text x="764" y="370" font-family="Arial" font-size="20" font-weight="800" fill="#0f172a">Interview warnings</text>
  <rect x="764" y="396" width="356" height="54" rx="8" fill="#eff6ff" stroke="#bfdbfe"/>
  <text x="782" y="428" font-family="Arial" font-size="15" font-weight="700" fill="#0f172a">Nova Labs - Today at 10:00</text>
  <rect x="296" y="550" width="864" height="150" rx="10" fill="#ffffff" stroke="#e2e8f0"/>
  <text x="320" y="590" font-family="Arial" font-size="20" font-weight="800" fill="#0f172a">Recent applications</text>
  <line x1="320" y1="620" x2="1130" y2="620" stroke="#e2e8f0"/>
  <text x="320" y="654" font-family="Arial" font-size="15" font-weight="700" fill="#0f172a">Frontend Intern</text>
  <text x="560" y="654" font-family="Arial" font-size="15" fill="#475569">BrightStack</text>
  <text x="820" y="654" font-family="Arial" font-size="15" fill="#16a34a">Applied</text>
</svg>
