<svg width="390" height="844" viewBox="0 0 390 844" fill="none" xmlns="http://www.w3.org/2000/svg">
  <rect width="390" height="844" fill="#ffffff"/>
  <rect x="18" y="22" width="38" height="38" rx="7" fill="#020617"/>
  <text x="32" y="48" font-family="Arial" font-size="20" font-weight="900" fill="#34d399">I</text>
  <text x="68" y="47" font-family="Arial" font-size="20" font-weight="800" fill="#0f172a">InternTrack</text>
  <text x="275" y="47" font-family="Arial" font-size="14" font-weight="700" fill="#475569">Login</text>
  <rect x="18" y="118" width="350" height="150" rx="10" fill="#ffffff"/>
  <text x="18" y="150" font-family="Arial" font-size="33" font-weight="900" fill="#020617">Organize every</text>
  <text x="18" y="190" font-family="Arial" font-size="33" font-weight="900" fill="#020617">internship</text>
  <text x="18" y="230" font-family="Arial" font-size="33" font-weight="900" fill="#020617">application.</text>
  <text x="20" y="300" font-family="Arial" font-size="16" fill="#475569">Track companies, applications,</text>
  <text x="20" y="326" font-family="Arial" font-size="16" fill="#475569">interviews, documents, and progress.</text>
  <rect x="20" y="366" width="350" height="46" rx="6" fill="#059669"/>
  <text x="118" y="394" font-family="Arial" font-size="16" font-weight="800" fill="#ffffff">Create free account</text>
  <rect x="20" y="424" width="350" height="46" rx="6" fill="#ffffff" stroke="#cbd5e1"/>
  <text x="172" y="453" font-family="Arial" font-size="16" font-weight="800" fill="#0f172a">Sign in</text>
  <rect x="20" y="510" width="350" height="280" rx="10" fill="#ffffff" stroke="#e2e8f0"/>
  <text x="42" y="548" font-family="Arial" font-size="14" font-weight="700" fill="#64748b">Application snapshot</text>
  <text x="42" y="582" font-family="Arial" font-size="25" font-weight="900" fill="#0f172a">This week</text>
  <rect x="42" y="616" width="306" height="54" rx="8" fill="#ffffff" stroke="#e2e8f0"/>
  <text x="58" y="648" font-family="Arial" font-size="15" font-weight="800" fill="#0f172a">Product Design Intern</text>
  <rect x="42" y="686" width="306" height="54" rx="8" fill="#ffffff" stroke="#e2e8f0"/>
  <text x="58" y="718" font-family="Arial" font-size="15" font-weight="800" fill="#0f172a">Frontend Intern</text>
</svg>
