<svg xmlns="http://www.w3.org/2000/svg" width="1200" height="630" viewBox="0 0 1200 630">
  <rect width="1200" height="630" fill="#f8fafc"/>
  <rect x="70" y="70" width="1060" height="490" rx="36" fill="#ffffff" stroke="#dbe3ea" stroke-width="2"/>
  <text x="120" y="180" font-family="Inter, Arial, sans-serif" font-size="78" font-weight="800" fill="#020617">InternTrack</text>
  <text x="124" y="242" font-family="Inter, Arial, sans-serif" font-size="34" font-weight="500" fill="#475569">Track applications. Prepare interviews. Land offers.</text>
  <rect x="126" y="305" width="230" height="62" rx="12" fill="#059669"/>
  <text x="160" y="346" font-family="Inter, Arial, sans-serif" font-size="22" font-weight="700" fill="#ffffff">Start tracking</text>
  <rect x="520" y="130" width="520" height="360" rx="26" fill="#0f172a"/>
  <rect x="550" y="165" width="180" height="70" rx="14" fill="#ecfdf5"/>
  <text x="572" y="195" font-family="Inter, Arial, sans-serif" font-size="16" font-weight="700" fill="#047857">Applications</text>
  <text x="572" y="222" font-family="Inter, Arial, sans-serif" font-size="28" font-weight="800" fill="#020617">42</text>
  <rect x="760" y="165" width="250" height="70" rx="14" fill="#eff6ff"/>
  <text x="782" y="195" font-family="Inter, Arial, sans-serif" font-size="16" font-weight="700" fill="#0369a1">Interviews this week</text>
  <text x="782" y="222" font-family="Inter, Arial, sans-serif" font-size="28" font-weight="800" fill="#020617">6</text>
  <rect x="550" y="270" width="460" height="48" rx="12" fill="#ffffff"/>
  <circle cx="580" cy="294" r="10" fill="#10b981"/>
  <text x="605" y="302" font-family="Inter, Arial, sans-serif" font-size="18" font-weight="700" fill="#0f172a">Applied → Assessment → Interview → Offer</text>
  <rect x="550" y="345" width="140" height="86" rx="14" fill="#ffffff"/>
  <rect x="712" y="375" width="140" height="56" rx="14" fill="#34d399"/>
  <rect x="874" y="330" width="136" height="101" rx="14" fill="#38bdf8"/>
</svg>
